<svg id="Layer_1" data-name="Layer 1" xmlns="http://www.w3.org/2000/svg" viewBox="0 0 492.24 107.88"><defs><style>.cls-1{fill:#d67023;}.cls-2{fill:#d67123;}.cls-3{fill:#d36d20;}.cls-4{fill:#d16b1e;}</style></defs><title>logo24_final</title><path class="cls-1" d="M277,316.7A54.1,54.1,0,0,1,255.41,342a4.65,4.65,0,0,1-5.51,0c-15.34-10.61-23.78-25.25-24.05-43.88-.28-18.94,7.78-34.07,23.24-45.12,1.22-.88,2.83-2.65,4.19-.79,1.48,2-.91,2.73-2.12,3.56-28.93,19.88-29.12,62.75-.38,82.5a2.88,2.88,0,0,0,3.8,0,49.88,49.88,0,0,0,21.6-31.84c.28-1.3.4-2.86,2.32-2.79,1.69.07,2.65,1.3,2.66,3.41q.09,18.53.14,37.05c0,3.13,0,3.17,3.18,2.79,17.9-2.17,31.25-11.21,39.53-27.17a49.78,49.78,0,0,0-19.92-66.14,51.65,51.65,0,0,0-23.53-6.46l-1,0c-1.17,0-2.05-.55-2.08-1.77a1.8,1.8,0,0,1,2-1.83,51,51,0,0,1,7.1.4,53.75,53.75,0,0,1,18.75,100.18,54.57,54.57,0,0,1-23.68,6.68c-.34,0-.68,0-1,0-2.53.29-2.95,0-2.95-2.68q0-13.14,0-26.27c0-1.7,0-3.39,0-5.09C277.5,315.69,277.22,316.45,277,316.7Z" transform="translate(-136.44 -242.98)"/><path class="cls-2" d="M370.12,296.48a57.45,57.45,0,0,1-21.48-11.58,54,54,0,0,1-10.11-11.64,4.71,4.71,0,0,1,.08-5.9,53.79,53.79,0,0,1,88.87-1.68c.59.84,1.25,1.63,1.75,2.5.65,1.15,1.3,2.52-.11,3.45s-2.46-.2-3.13-1.33a47.4,47.4,0,0,0-4-5.61c-21-25.41-61.33-23.36-79.68,4a2.76,2.76,0,0,0,.06,3.73Q356.29,291.8,380,294.23c1.19.12,2.33.21,2.56,1.75.28,1.85-.41,2.71-2.43,2.88a52.51,52.51,0,0,0-24,7.6,50.32,50.32,0,0,0-14.7,13.89,2.33,2.33,0,0,0-.13,3,50,50,0,0,0,74,12.16,54.13,54.13,0,0,0,9.76-10.89c.82-1.16,1.7-3,3.46-1.75s.37,2.75-.43,3.9c-8.94,12.79-21.14,20.83-36.56,22.77-23.63,3-42-6-54.67-26.32-.87-1.4-.37-2.42.36-3.53a53.63,53.63,0,0,1,30.59-22.61Z" transform="translate(-136.44 -242.98)"/><path class="cls-3" d="M550.25,311.6v1.79c0,11.27,0,22.54,0,33.81,0,1.45-.28,2.49-1.9,2.46s-1.78-1-1.78-2.37q.06-29,0-58c0-.89,0-1.77,0-2.65,0-1.27.2-2.42,1.76-2.45s1.88,1.21,1.85,2.55,0,2.57,0,3.86c0,5.44,0,10.87,0,16.3,0,1,0,1.77,1.26,2.16,19.22,6.12,38,5.45,56-4a36.29,36.29,0,0,0,12.7-11c7.16-10,6.52-21.65-1.66-31-6.15-7.05-14.08-11.16-22.9-13.72a71.44,71.44,0,0,0-42.66.51c-1,.33-2,.91-3,1.21-.67.2-1.61,1.15-2.08,0a1.88,1.88,0,0,1,1.24-2.76c2.52-.78,5-1.73,7.58-2.31,15-3.43,29.92-3,44.45,2.37,7.5,2.77,14.4,6.73,19.79,12.84,11.2,12.68,10.13,28.4-2.62,39.62-8.58,7.54-18.77,11.45-29.85,13.45a95.73,95.73,0,0,1-11.33,1.12c-1.19.07-1.45.4-1.3,1.56,1,7.58,5,13.39,10.7,18.12,8.06,6.66,17.51,10.16,27.73,11.77a68.65,68.65,0,0,0,8.7.82c.9,0,2,.12,1.94,1.27s-1,1.19-1.85,1.15c-15.9-.83-30.7-4.63-42.5-16.19a28,28,0,0,1-8.6-17.11c-.13-1.14-.55-1.53-1.6-1.57A71.86,71.86,0,0,1,551,311.61,3.22,3.22,0,0,0,550.25,311.6Z" transform="translate(-136.44 -242.98)"/><path class="cls-4" d="M136.46,316.46q0-14.25,0-28.51c0-.33,0-.67,0-1,0-1.58.68-2.48,2.31-2.4s2,1.13,2,2.52c0,6.38,0,12.76-.11,19.14,0,1.24.27,2,1.57,2.41,20,6.47,39.4,5.67,57.94-4.86a32.74,32.74,0,0,0,13.13-13.31c4.56-8.69,3.2-18.68-3.55-26.51-6.2-7.19-14.21-11.48-23.17-14a72.47,72.47,0,0,0-42.68.62,4.65,4.65,0,0,1-2.77.43c-.58-.17-1.24-.33-1.37-1.05s.41-1.1,1-1.38A8.87,8.87,0,0,1,142,248c19.77-6,39.08-5.13,57.75,4.08a40.24,40.24,0,0,1,14.19,11.38c8.54,11,8.05,24-1.31,34.3-7.19,7.92-16.38,12.39-26.54,15a77.81,77.81,0,0,1-43.72-1.12c-1.68-.53-1.81,0-1.8,1.42,0,10.66,0,21.31,0,32,0,.54,0,1.09,0,1.63a1.68,1.68,0,0,1-1.83,1.75,1.82,1.82,0,0,1-2.18-1.63,12.4,12.4,0,0,1-.05-1.83V316.46Z" transform="translate(-136.44 -242.98)"/><path class="cls-1" d="M539.76,250.31c-9.09,0-18.19,0-27.28,0-.77,0-1.72.08-1.89.86s.86.87,1.4,1.17a52.4,52.4,0,0,1,15.81,13.56c1.07,1.34,1.32,2.4.34,3.92-1.47,2.28-2.68,4.72-4,7.09l-35.36,63.43a12.26,12.26,0,0,0-.59,5.13c.08.62-.21,1.59.94,1.65q3.84-6.93,7.69-13.86,19.92-35.69,39.83-71.38c1.64-2.95,3.57-5.76,4.66-9C541.87,251.16,541.5,250.32,539.76,250.31Zm-8.71,14.21a100.47,100.47,0,0,0-10.2-11.1h16.34Z" transform="translate(-136.44 -242.98)"/><path class="cls-1" d="M485.14,341.55c-3.12-6-6.19-12.07-9.37-18.05q-14.32-27-28.74-53.86a2.17,2.17,0,0,1,.19-2.72,56.54,56.54,0,0,1,7.83-8.53,68.64,68.64,0,0,1,9-6.28c-1.61-1.9-3.55-1.17-5.39-1.18-6.92,0-13.84-.1-20.76-.12-2.95,0-3.79,1.41-2.39,4q14.2,26.79,28.43,53.56l20.81,39.16c1-.06.86-.87.94-1.47A10,10,0,0,0,485.14,341.55ZM439.36,255.2c-.35-.64-.48-1.17.55-1.17H455.1a57.53,57.53,0,0,0-10.47,11Z" transform="translate(-136.44 -242.98)"/></svg>